<?xml version="1.0" encoding="UTF-8"?>
<svg version="1.1" xmlns="http://www.w3.org/2000/svg" width="1024" height="1024">
<path d="M0 0 C0.66 0.66 1.32 1.32 2 2 C2.4846875 1.60167969 2.969375 1.20335937 3.46875 0.79296875 C12.72849781 -6.52579346 20.14355919 -7.9414205 32 -7 C40.08822868 -5.84807769 45.70716521 -1.01332539 51 5 C56.23332504 13.08351121 58.45009791 21.76179942 56.5390625 31.30078125 C54.82960077 37.12300678 51.84408286 41.37582209 48 46 C46.6652099 47.66550021 45.33172598 49.33204872 44 51 C44.43642822 51.65701904 44.87285645 52.31403809 45.32250977 52.9909668 C79.26206078 105.04934826 88.26184222 170.87648308 75.64794922 231.11425781 C66.8300209 270.38626714 48.20228846 305.60927483 22 336 C21.18789063 336.94230469 20.37578125 337.88460938 19.5390625 338.85546875 C11.06410918 348.4455475 2.06041736 357.09052438 -8 365 C-8.96292969 365.77988281 -9.92585938 366.55976562 -10.91796875 367.36328125 C-46.40811793 395.56647964 -89.17890862 411.70459217 -134 417 C-135.09441406 417.13148438 -136.18882812 417.26296875 -137.31640625 417.3984375 C-198.15248775 423.26788995 -260.41003643 404.07539376 -308.17578125 366.33984375 C-311.79406707 363.34212147 -315.30167269 360.24569577 -318.75390625 357.05859375 C-320.70954276 355.26621038 -322.71044258 353.56960056 -324.75 351.875 C-342.86443339 335.93865479 -357.14094306 315.8728507 -369 295 C-369.42619629 294.25991699 -369.85239258 293.51983398 -370.29150391 292.75732422 C-399.7348456 241.16742055 -406.86540269 176.29289661 -392 119 C-381.40007138 82.2523035 -365.14737794 49.28093134 -339 21 C-337.49870622 19.31365091 -335.99870757 17.62614794 -334.5 15.9375 C-327.71454625 8.42419481 -320.71045413 1.55575474 -312.7890625 -4.76171875 C-311.00801742 -6.19104485 -309.24980181 -7.64961957 -307.5234375 -9.14453125 C-287.05719141 -26.72776125 -261.45641145 -39.48531963 -236 -48 C-235.18450684 -48.27537598 -234.36901367 -48.55075195 -233.52880859 -48.83447266 C-222.39844553 -52.50769174 -211.1085677 -54.87395986 -199.5625 -56.8125 C-198.33088135 -57.01963623 -197.0992627 -57.22677246 -195.83032227 -57.44018555 C-124.63254319 -68.7754643 -54.17459226 -46.72686112 0 0 Z " fill="#DCE9D8" transform="translate(671,277)"/>
<path d="M0 0 C2.61932145 0.00315844 5.23750639 -0.02040621 7.85668945 -0.0456543 C25.20759495 -0.11027062 41.62642529 2.69773176 58.31958008 7.31567383 C59.0342041 7.50919434 59.74882813 7.70271484 60.48510742 7.90209961 C69.48632083 10.35373808 77.95914099 13.11267379 86.31958008 17.31567383 C87.58731902 17.93256769 88.85558771 18.54837362 90.12426758 19.16333008 C103.2315404 25.56208227 115.44007532 32.86589706 127.31958008 41.31567383 C126.75342023 45.19917651 124.98113361 47.07337696 122.31958008 49.87817383 C118.03270756 54.46587951 114.16188912 59.26440402 110.36254883 64.26098633 C109.68836914 64.9390332 109.01418945 65.61708008 108.31958008 66.31567383 C104.11643928 66.31567383 103.37732939 66.00863301 100.07348633 63.78833008 C98.83260254 62.9769458 98.83260254 62.9769458 97.56665039 62.14916992 C96.68074219 61.56474121 95.79483398 60.9803125 94.88208008 60.37817383 C79.14488418 50.30074999 62.20097793 43.57414352 44.19458008 38.75317383 C43.08469727 38.44089844 43.08469727 38.44089844 41.95239258 38.12231445 C28.46383206 34.51254029 14.82230833 33.87434078 0.94458008 33.87817383 C0.1166394 33.87710632 -0.71130127 33.87603882 -1.56433105 33.87493896 C-16.06671543 33.90178361 -29.67105977 35.36915374 -43.68041992 39.31567383 C-44.49800781 39.54029297 -45.3155957 39.76491211 -46.15795898 39.99633789 C-88.28664164 51.90189321 -124.43245029 80.94557064 -146.68041992 118.31567383 C-147.0785791 118.97873535 -147.47673828 119.64179688 -147.88696289 120.32495117 C-158.9607646 139.06915978 -165.60184166 159.83076831 -168.68041992 181.31567383 C-168.9665918 183.17579102 -168.9665918 183.17579102 -169.25854492 185.07348633 C-171.28190313 202.04651095 -170.18886575 219.63384927 -166.68041992 236.31567383 C-166.46385742 237.44231445 -166.24729492 238.56895508 -166.02416992 239.72973633 C-161.42351896 261.80190701 -152.29819977 284.27922158 -138.68041992 302.31567383 C-137.90827148 303.38043945 -137.13612305 304.44520508 -136.34057617 305.54223633 C-122.39865247 324.34693565 -104.99052161 339.73525539 -84.68041992 351.31567383 C-84.04652344 351.68047852 -83.41262695 352.0452832 -82.75952148 352.42114258 C-68.68614833 360.43961284 -54.11396637 366.10325983 -38.43041992 370.12817383 C-37.67591553 370.32314453 -36.92141113 370.51811523 -36.14404297 370.71899414 C-23.58223565 373.75406168 -11.0061834 374.64296476 1.88208008 374.56567383 C3.1756543 374.5734082 4.46922852 374.58114258 5.80200195 374.58911133 C14.47642348 374.571719 22.76915621 373.73535646 31.31958008 372.31567383 C32.67212105 372.12328078 34.0249218 371.93268758 35.37817383 371.74536133 C68.17220385 366.3618327 98.72207763 349.42495209 122.31958008 326.31567383 C123.33594057 325.34893197 124.35287851 324.38279688 125.37036133 323.41723633 C156.23120786 293.77419499 173.41984223 250.88054094 174.52270508 208.37817383 C174.7630624 189.75200246 172.91804751 172.86146324 167.12573242 155.11547852 C166.86356934 154.28435547 166.60140625 153.45323242 166.33129883 152.59692383 C166.08855225 151.86538086 165.84580566 151.13383789 165.59570312 150.38012695 C165.23828878 147.70789377 165.89395117 146.56666683 167.31958008 144.31567383 C168.83834466 142.52758536 170.40677043 140.78116655 172.00708008 139.06567383 C179.57107793 130.90593412 179.57107793 130.90593412 186.63208008 122.31567383 C187.18895508 121.65567383 187.74583008 120.99567383 188.31958008 120.31567383 C188.97958008 120.31567383 189.63958008 120.31567383 190.31958008 120.31567383 C200.50877066 143.67146403 207.39684348 167.42330001 207.52270508 193.12426758 C207.52840515 194.04925552 207.53410522 194.97424347 207.53997803 195.92726135 C207.54938069 197.87955602 207.55594306 199.83186622 207.55981445 201.78417969 C207.56944989 204.71359424 207.6004899 207.64228486 207.63208008 210.5715332 C207.92901914 263.42248767 183.09896559 313.33120429 146.50708008 350.44067383 C124.79027656 372.03230109 98.30787304 387.3197405 69.55053711 397.51977539 C67.71351015 398.17513848 65.88783915 398.86224479 64.06567383 399.55786133 C44.49723539 406.7394504 22.35708615 408.73294219 1.63208008 408.62817383 C0.8952298 408.62668335 0.15837952 408.62519287 -0.60079956 408.62365723 C-12.8321976 408.57941294 -24.67050651 407.76950917 -36.68041992 405.31567383 C-37.78111816 405.09886963 -37.78111816 405.09886963 -38.90405273 404.87768555 C-88.41725451 394.91102902 -133.89787602 366.11823397 -163.68041992 325.31567383 C-164.45901367 324.25864258 -165.23760742 323.20161133 -166.03979492 322.11254883 C-182.45963621 299.12477102 -194.36112878 273.05625637 -199.68041992 245.31567383 C-199.82608398 244.57075684 -199.97174805 243.82583984 -200.12182617 243.05834961 C-210.60140749 188.94925012 -198.80694175 134.47408263 -168.3581543 88.73901367 C-163.87294899 82.26052883 -158.88353841 76.22556513 -153.68041992 70.31567383 C-153.1499707 69.71223145 -152.61952148 69.10878906 -152.07299805 68.48706055 C-146.31829807 61.99453337 -140.43463801 55.78337418 -133.68041992 50.31567383 C-132.58144874 49.40423098 -131.48249177 48.49277101 -130.38354492 47.58129883 C-105.56266474 27.17638328 -77.8970753 13.08345016 -46.68041992 5.31567383 C-45.54217773 5.01918945 -44.40393555 4.72270508 -43.23120117 4.41723633 C-28.91146332 0.85931868 -14.68817067 -0.03684666 0 0 Z " fill="#256D4A" transform="translate(509.680419921875,251.684326171875)"/>
<path d="M0 0 C8.23667827 4.68535684 13.98488974 11.31725273 17.15625 20.2265625 C19.07413944 28.24457772 18.73851208 35.72911435 15.15625 43.2265625 C13.3362393 46.0559909 11.30431152 48.64093289 9.15625 51.2265625 C8.475625 52.1134375 7.795 53.0003125 7.09375 53.9140625 C4.91823268 56.51064768 2.55180482 58.83100768 0.15625 61.2265625 C-5.17159247 66.86115953 -10.36702959 72.55033926 -15.21875 78.6015625 C-19.82664031 84.3282751 -24.81434778 89.65107889 -29.83984375 95.0078125 C-32.66746009 98.02440104 -35.40427023 101.10810827 -38.10546875 104.23828125 C-40.31631489 106.76709178 -42.57971443 109.24528814 -44.84375 111.7265625 C-49.84063978 117.21113672 -54.74688066 122.75925081 -59.5546875 128.41015625 C-64.89813837 134.68392838 -70.30415165 140.86444446 -75.91357422 146.90185547 C-78.81123224 150.04159367 -81.54721573 153.26822739 -84.21875 156.6015625 C-88.26976724 161.63992444 -92.61598557 166.3296101 -97.04418945 171.0324707 C-101.08629193 175.34865407 -104.83963108 179.83150749 -108.53515625 184.44921875 C-111.68242535 188.23552726 -115.04195844 191.80320699 -118.40698242 195.39526367 C-121.48383242 198.69869015 -124.40047371 202.07085949 -127.21875 205.6015625 C-131.45353848 210.88349867 -136.04246525 215.76533128 -140.69091797 220.67919922 C-144.05831839 224.2574598 -147.27742257 227.8822117 -150.34375 231.7265625 C-154.52444922 236.96803614 -159.07086606 241.7973921 -163.67602539 246.66210938 C-167.98417015 251.2377935 -171.9706524 255.96080543 -175.89453125 260.87109375 C-178.16605625 263.6160428 -180.60159322 266.08848173 -183.1796875 268.54296875 C-184.98651042 270.37099851 -186.50630028 272.33151392 -188.09375 274.3515625 C-193.25352497 280.2061416 -199.05133794 282.76481173 -206.7578125 283.703125 C-215.91262559 284.21208746 -223.36548052 283.06615593 -230.41015625 276.84277344 C-236.25944441 271.4175926 -241.68957321 265.57601609 -246.85546875 259.5 C-249.69330117 256.25517001 -252.64597242 253.12140708 -255.59375 249.9765625 C-261.7227816 243.4339103 -267.79722753 236.84553681 -273.84375 230.2265625 C-275.65540744 228.24662338 -277.46809846 226.26763342 -279.28125 224.2890625 C-279.73338867 223.79567383 -280.18552734 223.30228516 -280.65136719 222.79394531 C-283.52145549 219.66386317 -286.3966966 216.53860003 -289.27758789 213.41845703 C-290.27788369 212.33451902 -291.27707571 211.24956134 -292.27514648 210.16357422 C-294.8663316 207.34792922 -297.47812793 204.55656795 -300.12890625 201.796875 C-309.5314019 191.94401957 -314.50322722 184.1525618 -314.1796875 170.09375 C-313.43797152 161.55539161 -309.10274167 155.65418208 -302.9609375 149.91796875 C-295.22524266 143.73797638 -286.56475032 142.2305067 -276.84375 143.2265625 C-262.77079365 146.13356169 -253.58235456 158.89950349 -244.61450195 169.21948242 C-241.60475803 172.63091283 -238.47295788 175.92502936 -235.34375 179.2265625 C-234.66248047 179.9491626 -233.98121094 180.6717627 -233.27929688 181.41625977 C-229.68658757 185.22669651 -226.08287475 189.02627946 -222.46875 192.81640625 C-221.09373367 194.26560951 -219.71873307 195.71482769 -218.34375 197.1640625 C-217.69083984 197.84404297 -217.03792969 198.52402344 -216.36523438 199.22460938 C-215.77033203 199.85302734 -215.17542969 200.48144531 -214.5625 201.12890625 C-213.77262695 201.95636353 -213.77262695 201.95636353 -212.96679688 202.80053711 C-211.84375 204.2265625 -211.84375 204.2265625 -211.84375 206.2265625 C-202.64524372 197.13179877 -193.85760151 187.67945205 -185.78515625 177.5703125 C-183.55970802 174.88365467 -181.14681702 172.50200107 -178.640625 170.08203125 C-175.63092589 166.97418978 -173.00660855 163.55232712 -170.296875 160.18359375 C-167.30134253 156.57273694 -164.13637916 153.15070931 -160.93945312 149.71923828 C-157.85377804 146.38580037 -154.94243139 142.95553545 -152.09375 139.4140625 C-149.63136239 136.35354172 -147.16924791 133.45485291 -144.34375 130.7265625 C-141.53849298 128.01759576 -139.09745468 125.14320711 -136.65625 122.1015625 C-133.20614254 117.81096889 -129.60608428 113.73983771 -125.84375 109.7265625 C-122.25279929 105.8940102 -118.80509972 102.02641234 -115.53125 97.9140625 C-111.691713 93.12338336 -107.5676574 88.67496891 -103.34375 84.2265625 C-98.29758073 78.91166232 -93.51682454 73.53385494 -88.94921875 67.80078125 C-86.67174154 65.01625902 -84.28062992 62.37242447 -81.84375 59.7265625 C-78.58867917 56.1910548 -75.47738119 52.59877463 -72.46875 48.8515625 C-69.07989031 44.6484185 -65.53135734 40.66453073 -61.84375 36.7265625 C-57.35114459 31.92855889 -53.12504723 26.99110996 -49.0078125 21.86328125 C-46.08610519 18.30343931 -43.00060534 14.9074359 -39.88671875 11.515625 C-37.78690427 9.23148134 -37.78690427 9.23148134 -35.8984375 6.609375 C-33.67193579 4.02731028 -31.85312734 2.90361864 -28.78125 1.4765625 C-27.92402344 1.06921875 -27.06679688 0.661875 -26.18359375 0.2421875 C-18.36397283 -3.15197183 -7.96745219 -3.18103502 0 0 Z " fill="#1D4172" transform="translate(709.84375,271.7734375)"/>
<path d="M0 0 C0 3 0 3 0 3 Z M-3 4 C-2 7 -2 7 -2.5 8.75 C-3.21525718 11.96865733 -2.55683839 14.78271155 -2 18 C-4.24140708 15.75859292 -4.58186939 14.58939826 -5.3125 11.5625 C-5.51488281 10.78003906 -5.71726562 9.99757813 -5.92578125 9.19140625 C-6 7 -6 7 -4.54296875 5.21484375 C-4.03378906 4.81394531 -3.52460937 4.41304688 -3 4 Z " fill="#398C5F" transform="translate(681,391)"/>
<path d="M0 0 C0.66 0 1.32 0 2 0 C2.33 1.32 2.66 2.64 3 4 C2.443125 4.061875 1.88625 4.12375 1.3125 4.1875 C-1.94987173 5.33373872 -3.68667874 7.49390197 -6 10 C-6.66 9.67 -7.32 9.34 -8 9 C-6.71520959 7.49410612 -5.42195918 5.99542625 -4.125 4.5 C-3.04605469 3.24703125 -3.04605469 3.24703125 -1.9453125 1.96875 C-1.30335938 1.3190625 -0.66140625 0.669375 0 0 Z " fill="#3B9160" transform="translate(698,372)"/>
<path d="M0 0 C1.65 0.99 3.3 1.98 5 3 C4.625 4.9375 4.625 4.9375 4 7 C3.01 7.495 3.01 7.495 2 8 C1.34 5.36 0.68 2.72 0 0 Z " fill="#328759" transform="translate(632,290)"/>
</svg>
